<svg width="105" height="28" viewBox="0 0 105 28" fill="none" xmlns="http://www.w3.org/2000/svg">
<path d="M3.74438 2L14.0083 26.2721V5.80997L9.09805 2H3.74438Z" fill="url(#paint0_linear_1041_119)"/>
<path d="M0 12.5595L14.0082 26.2721L3.74428 2L0 4.79179V12.5595Z" fill="url(#paint1_linear_1041_119)"/>
<path d="M24.2556 2L13.9917 26.2721V5.80997L18.9019 2H24.2556Z" fill="url(#paint2_linear_1041_119)"/>
<path d="M28 12.5595L13.9918 26.2721L24.2557 2L28 4.79179V12.5595Z" fill="url(#paint3_linear_1041_119)"/>
<path d="M39.278 20V7.994H44.372C45.248 7.994 46.004 8.108 46.64 8.336C47.288 8.552 47.792 8.906 48.152 9.398C48.512 9.878 48.692 10.52 48.692 11.324C48.692 11.864 48.56 12.308 48.296 12.656C48.032 13.004 47.714 13.286 47.342 13.502C46.97 13.706 46.622 13.868 46.298 13.988L45.974 13.358C46.634 13.382 47.21 13.52 47.702 13.772C48.206 14.012 48.596 14.354 48.872 14.798C49.16 15.23 49.304 15.752 49.304 16.364C49.304 17.204 49.1 17.894 48.692 18.434C48.296 18.962 47.762 19.358 47.09 19.622C46.418 19.874 45.674 20 44.858 20H39.278ZM42.194 17.75H44.642C44.942 17.75 45.218 17.708 45.47 17.624C45.722 17.528 45.926 17.372 46.082 17.156C46.238 16.928 46.316 16.628 46.316 16.256C46.316 15.98 46.268 15.752 46.172 15.572C46.076 15.392 45.944 15.254 45.776 15.158C45.62 15.05 45.44 14.972 45.236 14.924C45.032 14.876 44.816 14.852 44.588 14.852H42.194V17.75ZM42.194 12.71H44.534C44.738 12.71 44.93 12.674 45.11 12.602C45.29 12.518 45.434 12.392 45.542 12.224C45.662 12.056 45.722 11.834 45.722 11.558C45.722 11.066 45.59 10.73 45.326 10.55C45.062 10.358 44.738 10.262 44.354 10.262H42.194V12.71ZM51.3182 20V11.018H54.0002L54.0182 20H51.3182ZM51.2642 9.65V7.58H54.0362V9.65H51.2642ZM60.5366 20.27C59.6246 20.27 58.8146 20.084 58.1066 19.712C57.4106 19.328 56.8646 18.788 56.4686 18.092C56.0846 17.384 55.8926 16.544 55.8926 15.572C55.8926 13.988 56.2826 12.764 57.0626 11.9C57.8546 11.024 58.9826 10.586 60.4466 10.586C61.4546 10.586 62.2646 10.802 62.8766 11.234C63.5006 11.666 63.9566 12.296 64.2446 13.124C64.5326 13.952 64.6706 14.96 64.6586 16.148H57.7286L57.4406 14.438H62.4446L62.0486 15.284C62.0366 14.312 61.8986 13.628 61.6346 13.232C61.3706 12.836 60.9386 12.638 60.3386 12.638C60.0026 12.638 59.6966 12.722 59.4206 12.89C59.1566 13.058 58.9466 13.34 58.7906 13.736C58.6466 14.12 58.5746 14.654 58.5746 15.338C58.5746 16.202 58.7786 16.868 59.1866 17.336C59.6066 17.804 60.2726 18.038 61.1846 18.038C61.5206 18.038 61.8506 18.002 62.1746 17.93C62.5106 17.846 62.8226 17.75 63.1106 17.642C63.3986 17.534 63.6446 17.438 63.8486 17.354V19.658C63.4166 19.838 62.9306 19.982 62.3906 20.09C61.8626 20.21 61.2446 20.27 60.5366 20.27ZM66.522 11.666C66.75 11.546 67.05 11.426 67.422 11.306C67.794 11.174 68.202 11.06 68.646 10.964C69.09 10.868 69.534 10.79 69.978 10.73C70.434 10.67 70.854 10.64 71.238 10.64C72.054 10.64 72.75 10.748 73.326 10.964C73.902 11.168 74.34 11.504 74.64 11.972C74.952 12.44 75.108 13.076 75.108 13.88V20H72.426V14.42C72.426 14.192 72.39 13.982 72.318 13.79C72.258 13.598 72.162 13.436 72.03 13.304C71.898 13.16 71.718 13.052 71.49 12.98C71.262 12.896 70.986 12.854 70.662 12.854C70.386 12.854 70.11 12.89 69.834 12.962C69.558 13.022 69.348 13.088 69.204 13.16V20H66.522V11.666ZM81.7567 20.234C81.1087 20.234 80.4967 20.138 79.9207 19.946C79.3447 19.754 78.8347 19.466 78.3907 19.082C77.9467 18.698 77.5987 18.212 77.3467 17.624C77.0947 17.036 76.9687 16.352 76.9687 15.572C76.9687 14.744 77.0887 14.024 77.3287 13.412C77.5687 12.788 77.8987 12.272 78.3187 11.864C78.7507 11.456 79.2547 11.15 79.8307 10.946C80.4067 10.742 81.0427 10.64 81.7387 10.64C82.2307 10.64 82.7347 10.694 83.2507 10.802C83.7787 10.898 84.2407 11.036 84.6367 11.216V13.52C84.2167 13.328 83.8027 13.172 83.3947 13.052C82.9987 12.92 82.5907 12.854 82.1707 12.854C81.4147 12.854 80.8027 13.046 80.3347 13.43C79.8787 13.802 79.6507 14.414 79.6507 15.266C79.6507 16.166 79.8547 16.844 80.2627 17.3C80.6707 17.756 81.3487 17.984 82.2967 17.984C82.7407 17.984 83.1667 17.906 83.5747 17.75C83.9947 17.594 84.3547 17.432 84.6547 17.264V19.55C84.2347 19.766 83.7967 19.934 83.3407 20.054C82.8847 20.174 82.3567 20.234 81.7567 20.234ZM90.6299 20.27C89.0939 20.27 87.9359 19.862 87.1559 19.046C86.3879 18.218 86.0039 17.006 86.0039 15.41C86.0039 13.694 86.3939 12.464 87.1739 11.72C87.9659 10.964 89.1179 10.586 90.6299 10.586C91.6499 10.586 92.5019 10.76 93.1859 11.108C93.8819 11.444 94.4039 11.966 94.7519 12.674C95.1119 13.382 95.2919 14.294 95.2919 15.41C95.2919 17.006 94.8899 18.218 94.0859 19.046C93.2819 19.862 92.1299 20.27 90.6299 20.27ZM90.6299 18.128C91.0739 18.128 91.4399 18.026 91.7279 17.822C92.0279 17.606 92.2499 17.3 92.3939 16.904C92.5499 16.496 92.6279 15.998 92.6279 15.41C92.6279 14.738 92.5499 14.21 92.3939 13.826C92.2499 13.43 92.0279 13.148 91.7279 12.98C91.4279 12.8 91.0619 12.71 90.6299 12.71C90.1739 12.71 89.8019 12.8 89.5139 12.98C89.2259 13.16 89.0099 13.448 88.8659 13.844C88.7339 14.228 88.6679 14.75 88.6679 15.41C88.6679 16.322 88.8239 17.006 89.1359 17.462C89.4599 17.906 89.9579 18.128 90.6299 18.128ZM99.8431 20.27C99.1951 20.27 98.6371 20.198 98.1691 20.054C97.7131 19.922 97.2811 19.772 96.8731 19.604V17.246C97.1251 17.414 97.4071 17.588 97.7191 17.768C98.0311 17.936 98.3731 18.074 98.7451 18.182C99.1291 18.29 99.5311 18.344 99.9511 18.344C100.383 18.344 100.683 18.272 100.851 18.128C101.031 17.972 101.121 17.786 101.121 17.57C101.121 17.366 101.031 17.204 100.851 17.084C100.671 16.952 100.437 16.844 100.149 16.76C99.8611 16.676 99.5551 16.598 99.2311 16.526C98.9431 16.466 98.6551 16.376 98.3671 16.256C98.0791 16.124 97.8211 15.95 97.5931 15.734C97.3651 15.518 97.1791 15.254 97.0351 14.942C96.9031 14.618 96.8371 14.228 96.8371 13.772C96.8371 13.184 96.9511 12.698 97.1791 12.314C97.4071 11.918 97.7071 11.6 98.0791 11.36C98.4511 11.12 98.8531 10.952 99.2851 10.856C99.7171 10.748 100.137 10.7 100.545 10.712C101.289 10.736 101.877 10.82 102.309 10.964C102.753 11.096 103.155 11.27 103.515 11.486V13.592C103.107 13.364 102.699 13.154 102.291 12.962C101.895 12.758 101.439 12.656 100.923 12.656C100.455 12.656 100.119 12.728 99.9151 12.872C99.7111 13.016 99.6091 13.208 99.6091 13.448C99.6091 13.676 99.6751 13.856 99.8071 13.988C99.9511 14.12 100.137 14.228 100.365 14.312C100.593 14.384 100.845 14.456 101.121 14.528C101.421 14.6 101.727 14.69 102.039 14.798C102.363 14.894 102.663 15.038 102.939 15.23C103.227 15.41 103.455 15.668 103.623 16.004C103.803 16.328 103.893 16.76 103.893 17.3C103.881 18.032 103.683 18.62 103.299 19.064C102.915 19.496 102.417 19.808 101.805 20C101.205 20.18 100.551 20.27 99.8431 20.27Z" fill="white"/>
<defs>
<linearGradient id="paint0_linear_1041_119" x1="8.87635" y1="2" x2="8.87635" y2="26.2721" gradientUnits="userSpaceOnUse">
<stop stop-color="#66CBEC"/>
<stop offset="0.604167" stop-color="#0087B3"/>
</linearGradient>
<linearGradient id="paint1_linear_1041_119" x1="7.00411" y1="2" x2="7.00411" y2="26.2721" gradientUnits="userSpaceOnUse">
<stop stop-color="#66CBEC"/>
<stop offset="1" stop-color="#0093C2"/>
</linearGradient>
<linearGradient id="paint2_linear_1041_119" x1="19.1237" y1="2" x2="19.1237" y2="26.2721" gradientUnits="userSpaceOnUse">
<stop stop-color="#66CBEC"/>
<stop offset="0.739583" stop-color="#00C0FF"/>
</linearGradient>
<linearGradient id="paint3_linear_1041_119" x1="20.9959" y1="2" x2="20.9959" y2="26.2721" gradientUnits="userSpaceOnUse">
<stop stop-color="#00AAE0"/>
<stop offset="1" stop-color="#4D7CA8"/>
</linearGradient>
</defs>
</svg>
