<?xml version="1.0" encoding="UTF-8" standalone="no"?><svg width="132" height="99" viewBox="0 0 132 99" fill="none" xmlns="http://www.w3.org/2000/svg">
<g filter="url(#filter0_dd_1099_1386)">
<rect x="7" y="3" width="117.6" height="84" rx="9.14286" fill="white"/>
<path fill-rule="evenodd" clip-rule="evenodd" d="M85.3999 45.0009C85.3999 55.8257 76.6247 64.6009 65.7999 64.6009C54.9751 64.6009 46.1999 55.8257 46.1999 45.0009C46.1999 38.7289 59.3599 36.0969 70.4367 37.0881C71.6127 36.7745 72.8783 36.6009 74.1999 36.6009C80.3879 36.6009 85.3999 40.3641 85.3999 45.0009Z" fill="#232C80"/>
<path fill-rule="evenodd" clip-rule="evenodd" d="M62.9999 42.201C62.9999 42.201 68.0119 36.6009 74.1999 36.6009C80.3879 36.6009 85.3999 40.3641 85.3999 45.0009C85.3999 34.1761 76.6247 25.4009 65.7999 25.4009C57.9767 25.4009 51.2231 29.9817 48.0815 36.6121C46.1999 42.2009 46.1999 43.8361 46.1999 45.0009C48.9999 47.8009 52.1135 47.801 54.5999 47.801C57.0863 47.801 59.3207 46.7201 60.8607 45.0009L62.9999 42.201Z" fill="#F93939"/>
<path fill-rule="evenodd" clip-rule="evenodd" d="M90.9997 31.0008H102.2L90.9997 19.8008H85.3997L90.9997 31.0008ZM40.5997 31.0008H29.3997L40.5997 19.8008H46.1997L40.5997 31.0008ZM90.9997 59.0008H102.2L90.9997 70.2008H85.3997L90.9997 59.0008ZM40.5997 59.0008H29.3997L40.5997 70.2008H46.1997L40.5997 59.0008Z" fill="#151515"/>
</g>
<defs>
<filter id="filter0_dd_1099_1386" x="0.142857" y="0.714285" width="131.314" height="97.7143" filterUnits="userSpaceOnUse" color-interpolation-filters="sRGB">
<feFlood flood-opacity="0" result="BackgroundImageFix"/>
<feColorMatrix in="SourceAlpha" type="matrix" values="0 0 0 0 0 0 0 0 0 0 0 0 0 0 0 0 0 0 127 0" result="hardAlpha"/>
<feOffset dy="4.57143"/>
<feGaussianBlur stdDeviation="3.42857"/>
<feComposite in2="hardAlpha" operator="out"/>
<feColorMatrix type="matrix" values="0 0 0 0 0.258824 0 0 0 0 0.278431 0 0 0 0 0.298039 0 0 0 0.08 0"/>
<feBlend mode="normal" in2="BackgroundImageFix" result="effect1_dropShadow_1099_1386"/>
<feColorMatrix in="SourceAlpha" type="matrix" values="0 0 0 0 0 0 0 0 0 0 0 0 0 0 0 0 0 0 127 0" result="hardAlpha"/>
<feOffset/>
<feGaussianBlur stdDeviation="0.285714"/>
<feComposite in2="hardAlpha" operator="out"/>
<feColorMatrix type="matrix" values="0 0 0 0 0.258824 0 0 0 0 0.278431 0 0 0 0 0.298039 0 0 0 0.32 0"/>
<feBlend mode="normal" in2="effect1_dropShadow_1099_1386" result="effect2_dropShadow_1099_1386"/>
<feBlend mode="normal" in="SourceGraphic" in2="effect2_dropShadow_1099_1386" result="shape"/>
</filter>
</defs>
</svg>
