<?xml version="1.0" encoding="UTF-8" standalone="no"?><svg width="132" height="99" viewBox="0 0 132 99" fill="none" xmlns="http://www.w3.org/2000/svg">
<g filter="url(#filter0_dd_1099_1389)">
<g clip-path="url(#clip0_1099_1389)">
<rect x="7" y="3" width="117.6" height="84" rx="9.14286" fill="#1A47B8"/>
<path fill-rule="evenodd" clip-rule="evenodd" d="M19.5102 3H7V17L112.022 87L124.6 87V73L19.5102 3Z" fill="white"/>
<path d="M11.1726 3L124.6 78.7984V87L120.525 87L7 11.1231V3H11.1726Z" fill="#F93939"/>
<path fill-rule="evenodd" clip-rule="evenodd" d="M113.4 3H124.6V17C124.6 17 51.8549 63.6371 18.2 87H7V73L113.4 3Z" fill="white"/>
<path d="M124.6 3H120.802L7 78.8637V87H11.1726L124.6 11.1845V3Z" fill="#F93939"/>
<path fill-rule="evenodd" clip-rule="evenodd" d="M49.7676 3H81.9302V28.9102H124.6V61.0727H81.9302V87H49.7676V61.0727H7V28.9102H49.7676V3Z" fill="white"/>
<path fill-rule="evenodd" clip-rule="evenodd" d="M56.5158 3H75.0842V35.3077H124.6V54.6923H75.0842V87H56.5158V54.6923H7V35.3077H56.5158V3Z" fill="#F93939"/>
</g>
</g>
<defs>
<filter id="filter0_dd_1099_1389" x="0.142857" y="0.714285" width="131.314" height="97.7143" filterUnits="userSpaceOnUse" color-interpolation-filters="sRGB">
<feFlood flood-opacity="0" result="BackgroundImageFix"/>
<feColorMatrix in="SourceAlpha" type="matrix" values="0 0 0 0 0 0 0 0 0 0 0 0 0 0 0 0 0 0 127 0" result="hardAlpha"/>
<feOffset dy="4.57143"/>
<feGaussianBlur stdDeviation="3.42857"/>
<feComposite in2="hardAlpha" operator="out"/>
<feColorMatrix type="matrix" values="0 0 0 0 0.258824 0 0 0 0 0.278431 0 0 0 0 0.298039 0 0 0 0.08 0"/>
<feBlend mode="normal" in2="BackgroundImageFix" result="effect1_dropShadow_1099_1389"/>
<feColorMatrix in="SourceAlpha" type="matrix" values="0 0 0 0 0 0 0 0 0 0 0 0 0 0 0 0 0 0 127 0" result="hardAlpha"/>
<feOffset/>
<feGaussianBlur stdDeviation="0.285714"/>
<feComposite in2="hardAlpha" operator="out"/>
<feColorMatrix type="matrix" values="0 0 0 0 0.258824 0 0 0 0 0.278431 0 0 0 0 0.298039 0 0 0 0.32 0"/>
<feBlend mode="normal" in2="effect1_dropShadow_1099_1389" result="effect2_dropShadow_1099_1389"/>
<feBlend mode="normal" in="SourceGraphic" in2="effect2_dropShadow_1099_1389" result="shape"/>
</filter>
<clipPath id="clip0_1099_1389">
<rect x="7" y="3" width="117.6" height="84" rx="9.14286" fill="white"/>
</clipPath>
</defs>
</svg>
