<?xml version="1.0" encoding="UTF-8" standalone="no"?><svg width="132" height="99" viewBox="0 0 132 99" fill="none" xmlns="http://www.w3.org/2000/svg">
<g filter="url(#filter0_dd_1099_1382)">
<g clip-path="url(#clip0_1099_1382)">
<rect x="7" y="3" width="117.6" height="84" rx="9.14286" fill="white"/>
<path fill-rule="evenodd" clip-rule="evenodd" d="M7.00049 3H57.4005V42.2H7.00049V3Z" fill="#1A47B8"/>
<path fill-rule="evenodd" clip-rule="evenodd" d="M57.4005 3L57.4005 8.6H124.6V3H57.4005ZM57.4005 14.2V19.8H124.6V14.2H57.4005ZM57.4005 25.4V31H124.6V25.4H57.4005ZM57.4005 36.6L57.4005 42.2H124.6V36.6H57.4005ZM7.00049 47.8V53.4H124.6V47.8H7.00049ZM7.00049 59V64.6H124.6V59H7.00049ZM7.00049 70.2V75.8H124.6V70.2H7.00049ZM7.00049 81.4V87H124.6V81.4H7.00049Z" fill="#F93939"/>
<path fill-rule="evenodd" clip-rule="evenodd" d="M12.5998 8.59989V14.1999H18.1998V8.59989H12.5998ZM23.7998 8.59989V14.1999H29.3998V8.59989H23.7998ZM34.9998 8.59989V14.1999H40.5998V8.59989H34.9998ZM46.1998 8.59989V14.1999H51.7998V8.59989H46.1998ZM40.5998 14.1999V19.7999H46.1998V14.1999H40.5998ZM29.3998 14.1999V19.7999H34.9998V14.1999H29.3998ZM18.1998 14.1999V19.7999H23.7998V14.1999H18.1998ZM12.5998 19.7999V25.3999H18.1998V19.7999H12.5998ZM23.7998 19.7999V25.3999H29.3998V19.7999H23.7998ZM34.9998 19.7999V25.3999H40.5998V19.7999H34.9998ZM46.1998 19.7999V25.3999H51.7998V19.7999H46.1998ZM12.5998 30.9999V36.5999H18.1998V30.9999H12.5998ZM23.7998 30.9999V36.5999H29.3998V30.9999H23.7998ZM34.9998 30.9999V36.5999H40.5998V30.9999H34.9998ZM46.1998 30.9999V36.5999H51.7998V30.9999H46.1998ZM40.5998 25.3999V30.9999H46.1998V25.3999H40.5998ZM29.3998 25.3999V30.9999H34.9998V25.3999H29.3998ZM18.1998 25.3999V30.9999H23.7998V25.3999H18.1998Z" fill="white"/>
</g>
</g>
<defs>
<filter id="filter0_dd_1099_1382" x="0.142857" y="0.714285" width="131.314" height="97.7143" filterUnits="userSpaceOnUse" color-interpolation-filters="sRGB">
<feFlood flood-opacity="0" result="BackgroundImageFix"/>
<feColorMatrix in="SourceAlpha" type="matrix" values="0 0 0 0 0 0 0 0 0 0 0 0 0 0 0 0 0 0 127 0" result="hardAlpha"/>
<feOffset dy="4.57143"/>
<feGaussianBlur stdDeviation="3.42857"/>
<feComposite in2="hardAlpha" operator="out"/>
<feColorMatrix type="matrix" values="0 0 0 0 0.258824 0 0 0 0 0.278431 0 0 0 0 0.298039 0 0 0 0.08 0"/>
<feBlend mode="normal" in2="BackgroundImageFix" result="effect1_dropShadow_1099_1382"/>
<feColorMatrix in="SourceAlpha" type="matrix" values="0 0 0 0 0 0 0 0 0 0 0 0 0 0 0 0 0 0 127 0" result="hardAlpha"/>
<feOffset/>
<feGaussianBlur stdDeviation="0.285714"/>
<feComposite in2="hardAlpha" operator="out"/>
<feColorMatrix type="matrix" values="0 0 0 0 0.258824 0 0 0 0 0.278431 0 0 0 0 0.298039 0 0 0 0.32 0"/>
<feBlend mode="normal" in2="effect1_dropShadow_1099_1382" result="effect2_dropShadow_1099_1382"/>
<feBlend mode="normal" in="SourceGraphic" in2="effect2_dropShadow_1099_1382" result="shape"/>
</filter>
<clipPath id="clip0_1099_1382">
<rect x="7" y="3" width="117.6" height="84" rx="9.14286" fill="white"/>
</clipPath>
</defs>
</svg>
